<svg xmlns="http://www.w3.org/2000/svg" xmlns:xlink="http://www.w3.org/1999/xlink" viewBox="0 0 91.61 67.37"><defs><style>.a{opacity:0.89;fill:url(#a);}.b{fill:#ff249c;}.c{fill:url(#b);}.d{fill:url(#c);}.e{fill:url(#d);}.f{fill:url(#e);}.g{fill:url(#f);}.h{fill:url(#g);}.i{fill:url(#h);}.j{fill:url(#i);}.k{fill:url(#j);}.l{fill:url(#k);}.m{fill:url(#l);}.n{fill:url(#m);}.o{fill:url(#n);}.p{fill:url(#o);}</style><radialGradient id="a" cx="-1470.32" cy="-5020.02" r="91.74" gradientTransform="translate(4528.41 -2690.55) rotate(-105.32)" gradientUnits="userSpaceOnUse"><stop offset="0" stop-color="#ff27ff" stop-opacity="0.7"/><stop offset="0.12" stop-color="#ff27ff" stop-opacity="0.68"/><stop offset="0.27" stop-color="#ff27ff" stop-opacity="0.61"/><stop offset="0.45" stop-color="#ff27ff" stop-opacity="0.51"/><stop offset="0.64" stop-color="#ff27ff" stop-opacity="0.36"/><stop offset="0.84" stop-color="#fe27fe" stop-opacity="0.17"/><stop offset="1" stop-color="#fe27fe" stop-opacity="0"/></radialGradient><radialGradient id="b" cx="-8306.24" cy="-2941.88" r="19.69" gradientTransform="matrix(0.18, -0.25, 1.54, 1.11, 6061.46, 1251.4)" gradientUnits="userSpaceOnUse"><stop offset="0" stop-color="#eb2e8c"/><stop offset="1" stop-color="#d72a80" stop-opacity="0"/></radialGradient><radialGradient id="c" cx="-3271" cy="-2937.05" r="13.9" gradientTransform="matrix(0.39, -0.6, 1, 0.65, 4303.01, 12.33)" gradientUnits="userSpaceOnUse"><stop offset="0" stop-color="#fff"/><stop offset="0.11" stop-color="#fcfcfc" stop-opacity="0.83"/><stop offset="0.3" stop-color="#f9f9f9" stop-opacity="0.58"/><stop offset="0.47" stop-color="#f6f6f6" stop-opacity="0.37"/><stop offset="0.64" stop-color="#f3f3f3" stop-opacity="0.21"/><stop offset="0.78" stop-color="#f1f1f1" stop-opacity="0.1"/><stop offset="0.91" stop-color="#f0f0f0" stop-opacity="0.03"/><stop offset="1" stop-color="#f0f0f0" stop-opacity="0"/></radialGradient><radialGradient id="d" cx="-1469.98" cy="-5023.41" r="1.23" gradientTransform="translate(4528.41 -2690.55) rotate(-105.32)" gradientUnits="userSpaceOnUse"><stop offset="0" stop-color="#fff"/><stop offset="0.31" stop-color="#fcfcfc" stop-opacity="0.65"/><stop offset="0.65" stop-color="#f9f9f9" stop-opacity="0.31"/><stop offset="0.89" stop-color="#f8f8f8" stop-opacity="0.09"/><stop offset="1" stop-color="#f7f7f7" stop-opacity="0"/></radialGradient><radialGradient id="e" cx="-1460.5" cy="-5031.29" r="1.23" gradientTransform="translate(4528.41 -2690.55) rotate(-105.32)" gradientUnits="userSpaceOnUse"><stop offset="0" stop-color="#fff"/><stop offset="1" stop-color="#efefef" stop-opacity="0"/></radialGradient><radialGradient id="f" cx="-1466.68" cy="-5026.88" r="1.23" gradientTransform="translate(4528.41 -2690.55) rotate(-105.32)" gradientUnits="userSpaceOnUse"><stop offset="0.67" stop-color="#fff"/><stop offset="0.71" stop-color="#fff" stop-opacity="0.9"/><stop offset="0.8" stop-color="#fff" stop-opacity="0.65"/><stop offset="0.93" stop-color="#fff" stop-opacity="0.24"/><stop offset="1" stop-color="#fff" stop-opacity="0"/></radialGradient><radialGradient id="g" cx="-1467.48" cy="-5020.09" r="1.23" gradientTransform="translate(4528.41 -2690.55) rotate(-105.32)" gradientUnits="userSpaceOnUse"><stop offset="0.67" stop-color="#fff"/><stop offset="0.68" stop-color="#fff" stop-opacity="0.96"/><stop offset="0.75" stop-color="#fff" stop-opacity="0.67"/><stop offset="0.81" stop-color="#fff" stop-opacity="0.43"/><stop offset="0.87" stop-color="#fff" stop-opacity="0.25"/><stop offset="0.93" stop-color="#fff" stop-opacity="0.11"/><stop offset="0.97" stop-color="#fff" stop-opacity="0.03"/><stop offset="1" stop-color="#fff" stop-opacity="0"/></radialGradient><radialGradient id="h" cx="-1477.22" cy="-5016.61" r="1.23" gradientTransform="translate(4528.41 -2690.55) rotate(-105.32)" gradientUnits="userSpaceOnUse"><stop offset="0.37" stop-color="#fff"/><stop offset="0.67" stop-color="#f6f6f6" stop-opacity="0.48"/><stop offset="0.9" stop-color="#efefef" stop-opacity="0.14"/><stop offset="1" stop-color="#ededed" stop-opacity="0"/></radialGradient><radialGradient id="i" cx="-1468.51" cy="-5016.74" r="1.23" gradientTransform="translate(4528.41 -2690.55) rotate(-105.32)" gradientUnits="userSpaceOnUse"><stop offset="0.37" stop-color="#fff"/><stop offset="0.41" stop-color="#fff" stop-opacity="0.89"/><stop offset="0.5" stop-color="#fff" stop-opacity="0.66"/><stop offset="0.59" stop-color="#fff" stop-opacity="0.46"/><stop offset="0.68" stop-color="#fff" stop-opacity="0.29"/><stop offset="0.77" stop-color="#fff" stop-opacity="0.16"/><stop offset="0.85" stop-color="#fff" stop-opacity="0.07"/><stop offset="0.93" stop-color="#fff" stop-opacity="0.02"/><stop offset="1" stop-color="#fff" stop-opacity="0"/></radialGradient><radialGradient id="j" cx="-1471.21" cy="-5025.65" r="1.23" gradientTransform="translate(4528.41 -2690.55) rotate(-105.32)" gradientUnits="userSpaceOnUse"><stop offset="0.37" stop-color="#fff"/><stop offset="0.41" stop-color="#fff" stop-opacity="0.88"/><stop offset="0.5" stop-color="#fff" stop-opacity="0.65"/><stop offset="0.59" stop-color="#fff" stop-opacity="0.45"/><stop offset="0.68" stop-color="#fff" stop-opacity="0.29"/><stop offset="0.77" stop-color="#fff" stop-opacity="0.16"/><stop offset="0.85" stop-color="#fff" stop-opacity="0.07"/><stop offset="0.93" stop-color="#fff" stop-opacity="0.02"/><stop offset="1" stop-color="#fff" stop-opacity="0"/></radialGradient><radialGradient id="k" cx="-1463.28" cy="-5022.16" r="1.23" gradientTransform="translate(4528.41 -2690.55) rotate(-105.32)" gradientUnits="userSpaceOnUse"><stop offset="0.37" stop-color="#fff"/><stop offset="0.38" stop-color="#fff" stop-opacity="0.96"/><stop offset="0.52" stop-color="#fff" stop-opacity="0.67"/><stop offset="0.65" stop-color="#fff" stop-opacity="0.43"/><stop offset="0.76" stop-color="#fff" stop-opacity="0.25"/><stop offset="0.86" stop-color="#fff" stop-opacity="0.11"/><stop offset="0.95" stop-color="#fff" stop-opacity="0.03"/><stop offset="1" stop-color="#fff" stop-opacity="0"/></radialGradient><radialGradient id="l" cx="-1464.53" cy="-5030" r="1.23" gradientTransform="translate(4528.41 -2690.55) rotate(-105.32)" gradientUnits="userSpaceOnUse"><stop offset="0.15" stop-color="#fff"/><stop offset="0.28" stop-color="#fdfdfd" stop-opacity="0.76"/><stop offset="0.43" stop-color="#fbfbfb" stop-opacity="0.53"/><stop offset="0.56" stop-color="#f9f9f9" stop-opacity="0.34"/><stop offset="0.69" stop-color="#f8f8f8" stop-opacity="0.19"/><stop offset="0.81" stop-color="#f7f7f7" stop-opacity="0.09"/><stop offset="0.92" stop-color="#f6f6f6" stop-opacity="0.02"/><stop offset="1" stop-color="#f6f6f6" stop-opacity="0"/></radialGradient><radialGradient id="m" cx="-1456.2" cy="-5028.84" r="1.23" gradientTransform="translate(4528.41 -2690.55) rotate(-105.32)" gradientUnits="userSpaceOnUse"><stop offset="0.15" stop-color="#fff"/><stop offset="0.17" stop-color="#fff" stop-opacity="0.96"/><stop offset="0.36" stop-color="#fff" stop-opacity="0.67"/><stop offset="0.53" stop-color="#fff" stop-opacity="0.43"/><stop offset="0.68" stop-color="#fff" stop-opacity="0.25"/><stop offset="0.82" stop-color="#fff" stop-opacity="0.11"/><stop offset="0.93" stop-color="#fff" stop-opacity="0.03"/><stop offset="1" stop-color="#fff" stop-opacity="0"/></radialGradient><radialGradient id="n" cx="-1471.85" cy="-5022.16" r="1.23" gradientTransform="translate(4528.41 -2690.55) rotate(-105.32)" gradientUnits="userSpaceOnUse"><stop offset="0.15" stop-color="#fff"/><stop offset="0.25" stop-color="#fdfdfd" stop-opacity="0.86"/><stop offset="0.46" stop-color="#f9f9f9" stop-opacity="0.56"/><stop offset="0.65" stop-color="#f5f5f5" stop-opacity="0.32"/><stop offset="0.8" stop-color="#f3f3f3" stop-opacity="0.14"/><stop offset="0.93" stop-color="#f2f2f2" stop-opacity="0.04"/><stop offset="1" stop-color="#f1f1f1" stop-opacity="0"/></radialGradient><radialGradient id="o" cx="-1474.36" cy="-5015.65" r="1.23" gradientTransform="translate(4528.41 -2690.55) rotate(-105.32)" gradientUnits="userSpaceOnUse"><stop offset="0.15" stop-color="#fff"/><stop offset="0.73" stop-color="#f1f1f1" stop-opacity="0.31"/><stop offset="1" stop-color="#ebebeb" stop-opacity="0"/></radialGradient></defs><path class="a" d="M17.87,14.42c8.73,7,21.82,17.81,34.39,26.57a1.24,1.24,0,0,0,1.25,2,1.22,1.22,0,0,0,.77-.63L58,45a.67.67,0,0,0,.65.45c.64.43,1.25.86,1.84,1.27a.87.87,0,0,0-.26.87.86.86,0,0,0,1.06.6.83.83,0,0,0,.57-.52l2.78,1.91a.93.93,0,0,0,0,.44.9.9,0,0,0,1.11.63.83.83,0,0,0,.27-.12l1.1.76a1.15,1.15,0,0,0-.7,1.38,1.17,1.17,0,0,0,1.42.81,1.15,1.15,0,0,0,.85-1.11l.77.52c1.56,1.66,4.23,3.42,6.17,3.52a1.49,1.49,0,0,0,0,.81,1.55,1.55,0,1,0,3-.82,1.52,1.52,0,0,0-1-1.06,2.2,2.2,0,0,0,0-1.22.63.63,0,0,0-.39-1.2l-.08,0a21.29,21.29,0,0,0-1.67-2.5,3.68,3.68,0,0,0-1.55-1.18,2,2,0,0,0-.06-.35,1.65,1.65,0,0,0-2-1.16,1.69,1.69,0,0,0-.78.48,5.11,5.11,0,0,1-.83-.44h0l-1.77-1.18a.13.13,0,0,0,0-.06.3.3,0,0,0-.38-.22h0c-1.14-.75-2.43-1.62-3.85-2.57a1.16,1.16,0,0,0,.3-1.14,1.18,1.18,0,0,0-1.45-.83,1.17,1.17,0,0,0-.77.68L60.08,41a1,1,0,0,0-1-1.48,1,1,0,0,0-.55.41C42.7,29.31,19.21,13.41,14.36,9.47,3.35.51,0,0,0,0S12.8,10.38,17.87,14.42Z"/><path class="b" d="M40.51,27.78a10.46,10.46,0,0,1-1.11.12c1.18,1.4,2.72,2.45,3.91,3.84a.12.12,0,0,1-.08.2c-1.61.16-3-1-4.22-1.91s-2.76-2.51-4.5-2.79a11,11,0,0,0,.67,1C40.67,32.55,46.52,37,52.26,41a1.24,1.24,0,0,0,1.25,2,1.22,1.22,0,0,0,.77-.63L58,45a.65.65,0,0,0,.65.44l1.84,1.28a.87.87,0,0,0-.26.87.86.86,0,0,0,1.06.6.83.83,0,0,0,.57-.52l2.78,1.91a.93.93,0,0,0,0,.44.9.9,0,0,0,1.11.63.83.83,0,0,0,.27-.12l1.1.76a1.15,1.15,0,0,0-.7,1.38,1.17,1.17,0,0,0,1.42.81,1.15,1.15,0,0,0,.85-1.11l.77.52c1.56,1.66,4.23,3.42,6.17,3.52a1.49,1.49,0,0,0,0,.81,1.55,1.55,0,1,0,3-.82,1.52,1.52,0,0,0-1-1.06,2.2,2.2,0,0,0,0-1.22.63.63,0,0,0-.39-1.2l-.08,0a21.29,21.29,0,0,0-1.67-2.5,3.68,3.68,0,0,0-1.55-1.18,2,2,0,0,0-.06-.35,1.65,1.65,0,0,0-2-1.16,1.69,1.69,0,0,0-.78.48,5.11,5.11,0,0,1-.83-.44h0l-1.77-1.18a.13.13,0,0,0,0-.06.3.3,0,0,0-.38-.22h0c-1.14-.75-2.43-1.62-3.85-2.57a1.16,1.16,0,0,0,.3-1.14,1.18,1.18,0,0,0-1.45-.83,1.17,1.17,0,0,0-.77.68L60.08,41a1,1,0,0,0-1-1.48,1,1,0,0,0-.55.41C53.05,36.27,46.7,32,40.51,27.78Z"/><path class="c" d="M53,32.43c16.79,12.06,28.84,24,26.92,26.68s-17.1-4.92-33.89-17-28.84-24-26.92-26.68S36.23,20.38,53,32.43Z"/><path class="d" d="M82.11,46.66c7.69,5,11.48,12.85,8.46,17.46s-11.7,4.28-19.39-.75S59.71,50.53,62.72,45.91,74.42,41.63,82.11,46.66Z"/><path class="e" d="M71.38,53.25a1.23,1.23,0,1,1-.86,1.51A1.23,1.23,0,0,1,71.38,53.25Z"/><path class="f" d="M61.27,46.18a1.23,1.23,0,1,1-.86,1.51A1.23,1.23,0,0,1,61.27,46.18Z"/><path class="g" d="M67.16,51a1.22,1.22,0,1,1-.86,1.51A1.23,1.23,0,0,1,67.16,51Z"/><path class="h" d="M73.92,50a1.22,1.22,0,1,1-.86,1.5A1.23,1.23,0,0,1,73.92,50Z"/><path class="i" d="M79.85,58.44a1.22,1.22,0,1,1-.86,1.5A1.22,1.22,0,0,1,79.85,58.44Z"/><path class="j" d="M77.42,50.07a1.23,1.23,0,1,1-.86,1.51A1.23,1.23,0,0,1,77.42,50.07Z"/><path class="k" d="M69.54,55a1.22,1.22,0,1,1-.86,1.5A1.22,1.22,0,0,1,69.54,55Z"/><path class="l" d="M70.81,46.46A1.23,1.23,0,1,1,70,48,1.23,1.23,0,0,1,70.81,46.46Z"/><path class="m" d="M63.58,49.73a1.23,1.23,0,1,1-.86,1.51A1.23,1.23,0,0,1,63.58,49.73Z"/><path class="n" d="M62.5,41.4a1.22,1.22,0,1,1-.86,1.5A1.22,1.22,0,0,1,62.5,41.4Z"/><path class="o" d="M73.08,54.72a1.23,1.23,0,1,1-.86,1.51A1.22,1.22,0,0,1,73.08,54.72Z"/><path class="p" d="M80,55.43a1.22,1.22,0,0,1,1.5.86,1.22,1.22,0,1,1-1.5-.86Z"/></svg>