<svg xmlns="http://www.w3.org/2000/svg" xmlns:xlink="http://www.w3.org/1999/xlink" viewBox="0 0 35.18 30.79"><defs><style>.a{opacity:0.39;fill:url(#a);}.b{fill:#ff63a6;opacity:0.74;}.c{fill:url(#b);}.d{fill:url(#c);}.e{fill:url(#d);}.f{fill:url(#e);}.g{fill:url(#f);}.h{fill:url(#g);}.i{fill:url(#h);}.j{fill:url(#i);}.k{fill:url(#j);}.l{fill:url(#k);}.m{fill:url(#l);}.n{fill:url(#m);}.o{fill:url(#n);}.p{fill:url(#o);}</style><radialGradient id="a" cx="-2639.85" cy="-4609.06" r="41.49" gradientTransform="translate(3919.47 -3591.37) rotate(-103.13)" gradientUnits="userSpaceOnUse"><stop offset="0" stop-color="#ff27ff"/><stop offset="0.1" stop-color="#ff27ff" stop-opacity="0.98"/><stop offset="0.22" stop-color="#ff27ff" stop-opacity="0.91"/><stop offset="0.36" stop-color="#ff27ff" stop-opacity="0.81"/><stop offset="0.51" stop-color="#fe27fe" stop-opacity="0.66"/><stop offset="0.67" stop-color="#fe27fe" stop-opacity="0.47"/><stop offset="0.84" stop-color="#fd27fd" stop-opacity="0.24"/><stop offset="1" stop-color="#fd27fd" stop-opacity="0"/></radialGradient><radialGradient id="b" cx="-9273.18" cy="-2446.83" r="5.27" gradientTransform="matrix(0.19, -0.24, 1.5, 1.17, 5422.54, 656.19)" gradientUnits="userSpaceOnUse"><stop offset="0" stop-color="#eb2e8c" stop-opacity="0.7"/><stop offset="1" stop-color="#d82a81" stop-opacity="0"/></radialGradient><radialGradient id="c" cx="-3860.19" cy="-2135.77" r="3.72" gradientTransform="matrix(0.42, -0.59, 0.98, 0.69, 3719.35, -753.49)" gradientUnits="userSpaceOnUse"><stop offset="0" stop-color="#fff"/><stop offset="0.19" stop-color="#fbfbfb" stop-opacity="0.74"/><stop offset="0.41" stop-color="#f7f7f7" stop-opacity="0.48"/><stop offset="0.61" stop-color="#f4f4f4" stop-opacity="0.27"/><stop offset="0.78" stop-color="#f2f2f2" stop-opacity="0.12"/><stop offset="0.91" stop-color="#f1f1f1" stop-opacity="0.03"/><stop offset="1" stop-color="#f0f0f0" stop-opacity="0"/></radialGradient><radialGradient id="d" cx="-2640.67" cy="-4609.57" r="0.33" gradientTransform="translate(3919.47 -3591.37) rotate(-103.13)" gradientUnits="userSpaceOnUse"><stop offset="0" stop-color="#fff"/><stop offset="1" stop-color="#f0f0f0" stop-opacity="0"/></radialGradient><radialGradient id="e" cx="-2638.13" cy="-4611.68" r="0.33" gradientTransform="translate(3919.47 -3591.37) rotate(-103.13)" gradientUnits="userSpaceOnUse"><stop offset="0" stop-color="#fff"/><stop offset="0.14" stop-color="#fbfbfb" stop-opacity="0.86"/><stop offset="1" stop-color="#e4e4e4" stop-opacity="0"/></radialGradient><radialGradient id="f" cx="-2639.79" cy="-4610.49" r="0.33" gradientTransform="translate(3919.47 -3591.37) rotate(-103.13)" gradientUnits="userSpaceOnUse"><stop offset="0.67" stop-color="#fff"/><stop offset="0.68" stop-color="#fff" stop-opacity="0.96"/><stop offset="0.75" stop-color="#fff" stop-opacity="0.67"/><stop offset="0.81" stop-color="#fff" stop-opacity="0.43"/><stop offset="0.87" stop-color="#fff" stop-opacity="0.25"/><stop offset="0.93" stop-color="#fff" stop-opacity="0.11"/><stop offset="0.97" stop-color="#fff" stop-opacity="0.03"/><stop offset="1" stop-color="#fff" stop-opacity="0"/></radialGradient><radialGradient id="g" cx="-2640" cy="-4608.68" r="0.33" xlink:href="#f"/><radialGradient id="h" cx="-2642.61" cy="-4607.74" r="0.33" gradientTransform="translate(3919.47 -3591.37) rotate(-103.13)" gradientUnits="userSpaceOnUse"><stop offset="0.37" stop-color="#fff"/><stop offset="0.4" stop-color="#fff" stop-opacity="0.94"/><stop offset="0.62" stop-color="#fff" stop-opacity="0.55"/><stop offset="0.81" stop-color="#fff" stop-opacity="0.25"/><stop offset="0.94" stop-color="#fff" stop-opacity="0.07"/><stop offset="1" stop-color="#fff" stop-opacity="0"/></radialGradient><radialGradient id="i" cx="-2640.28" cy="-4607.78" r="0.33" gradientTransform="translate(3919.47 -3591.37) rotate(-103.13)" gradientUnits="userSpaceOnUse"><stop offset="0.37" stop-color="#fff"/><stop offset="0.38" stop-color="#fff" stop-opacity="0.96"/><stop offset="0.52" stop-color="#fff" stop-opacity="0.67"/><stop offset="0.65" stop-color="#fff" stop-opacity="0.43"/><stop offset="0.76" stop-color="#fff" stop-opacity="0.25"/><stop offset="0.86" stop-color="#fff" stop-opacity="0.11"/><stop offset="0.95" stop-color="#fff" stop-opacity="0.03"/><stop offset="1" stop-color="#fff" stop-opacity="0"/></radialGradient><radialGradient id="j" cx="-2641" cy="-4610.17" r="0.33" xlink:href="#i"/><radialGradient id="k" cx="-2638.88" cy="-4609.23" r="0.33" xlink:href="#i"/><radialGradient id="l" cx="-2639.21" cy="-4611.33" r="0.33" gradientTransform="translate(3919.47 -3591.37) rotate(-103.13)" gradientUnits="userSpaceOnUse"><stop offset="0.15" stop-color="#fff"/><stop offset="0.27" stop-color="#fff" stop-opacity="0.82"/><stop offset="0.47" stop-color="#fff" stop-opacity="0.53"/><stop offset="0.65" stop-color="#fff" stop-opacity="0.3"/><stop offset="0.81" stop-color="#fff" stop-opacity="0.14"/><stop offset="0.93" stop-color="#fff" stop-opacity="0.04"/><stop offset="1" stop-color="#fff" stop-opacity="0"/></radialGradient><radialGradient id="m" cx="-2636.98" cy="-4611.02" r="0.33" gradientTransform="translate(3919.47 -3591.37) rotate(-103.13)" gradientUnits="userSpaceOnUse"><stop offset="0.15" stop-color="#fff"/><stop offset="0.19" stop-color="#fff" stop-opacity="0.94"/><stop offset="0.42" stop-color="#fff" stop-opacity="0.61"/><stop offset="0.63" stop-color="#fff" stop-opacity="0.35"/><stop offset="0.8" stop-color="#fff" stop-opacity="0.16"/><stop offset="0.93" stop-color="#fff" stop-opacity="0.04"/><stop offset="1" stop-color="#fff" stop-opacity="0"/></radialGradient><radialGradient id="n" cx="-2641.17" cy="-4609.23" r="0.33" gradientTransform="translate(3919.47 -3591.37) rotate(-103.13)" gradientUnits="userSpaceOnUse"><stop offset="0.15" stop-color="#fff"/><stop offset="0.17" stop-color="#fff" stop-opacity="0.96"/><stop offset="0.36" stop-color="#fff" stop-opacity="0.67"/><stop offset="0.53" stop-color="#fff" stop-opacity="0.43"/><stop offset="0.68" stop-color="#fff" stop-opacity="0.25"/><stop offset="0.82" stop-color="#fff" stop-opacity="0.11"/><stop offset="0.93" stop-color="#fff" stop-opacity="0.03"/><stop offset="1" stop-color="#fff" stop-opacity="0"/></radialGradient><radialGradient id="o" cx="-2641.85" cy="-4607.49" r="0.33" xlink:href="#n"/></defs><path class="a" d="M1.94,2.34C3,3,3.69,4.63,4.54,6.3s4.29,2.86,5.59,4.37A76.3,76.3,0,0,0,15.92,16c2.26,1.95,5.65,5,8.93,7.46a.34.34,0,0,0-.09.31.33.33,0,0,0,.4.25.37.37,0,0,0,.22-.16l1,.73a.17.17,0,0,0,.17.13L27,25a.23.23,0,0,0,.2.4.26.26,0,0,0,.16-.13l.72.54a.24.24,0,0,0,0,.12.24.24,0,0,0,.29.18l.07,0,.29.21a.31.31,0,0,0,.17.59.31.31,0,0,0,.24-.29l.2.15a3,3,0,0,0,1.61,1,.54.54,0,0,0,0,.22.43.43,0,0,0,.5.31.41.41,0,0,0,.31-.5.42.42,0,0,0-.26-.3.52.52,0,0,0,0-.33.16.16,0,0,0,.12-.19.19.19,0,0,0-.21-.13h0a6.3,6.3,0,0,0-.42-.69,1.14,1.14,0,0,0-.4-.33s0-.06,0-.09a.43.43,0,0,0-.53-.33.38.38,0,0,0-.21.12l-.22-.13h0l-.46-.34h0A.07.07,0,0,0,29,25h0l-1-.73a.31.31,0,0,0,.09-.3.32.32,0,0,0-.38-.24.3.3,0,0,0-.21.17l-.58-.42a.23.23,0,0,0,0-.21.25.25,0,0,0-.31-.19.21.21,0,0,0-.15.1c-4.12-3-10.24-7.5-11.5-8.6-2.86-2.51-4.48-4.11-5.42-4.91S5.19,7.48,4.7,6,3.55,2.43,2.32,2A6.49,6.49,0,0,1,0,0,7,7,0,0,0,1.94,2.34Z"/><path class="b" d="M21.84,19.76l-.3,0c.3.38.7.68,1,1.07,0,0,0,0,0,0a1.71,1.71,0,0,1-1.12-.56,2.9,2.9,0,0,0-1.17-.79,2.61,2.61,0,0,0,.17.28c1.42,1.2,2.94,2.45,4.44,3.58a.34.34,0,0,0-.09.31.33.33,0,0,0,.4.25.37.37,0,0,0,.22-.16l1,.73a.17.17,0,0,0,.17.13L27,25a.23.23,0,0,0,.2.4.26.26,0,0,0,.16-.13l.72.54a.24.24,0,0,0,0,.12.24.24,0,0,0,.29.18l.07,0,.29.21a.31.31,0,0,0,.17.59.31.31,0,0,0,.24-.29l.2.15a3,3,0,0,0,1.61,1,.54.54,0,0,0,0,.22.43.43,0,0,0,.5.31.41.41,0,0,0,.31-.5.42.42,0,0,0-.26-.3.52.52,0,0,0,0-.33.16.16,0,0,0,.12-.19.19.19,0,0,0-.21-.13h0a6.3,6.3,0,0,0-.42-.69,1.14,1.14,0,0,0-.4-.33s0-.06,0-.09a.43.43,0,0,0-.53-.33.38.38,0,0,0-.21.12l-.22-.13h0l-.46-.34h0A.07.07,0,0,0,29,25h0l-1-.73a.31.31,0,0,0,.09-.3.32.32,0,0,0-.38-.24.3.3,0,0,0-.21.17l-.58-.42a.23.23,0,0,0,0-.21.25.25,0,0,0-.31-.19.21.21,0,0,0-.15.1Z"/><path class="c" d="M25.14,21.13c4.37,3.4,7.47,6.72,6.93,7.41s-4.52-1.49-8.9-4.88-7.47-6.72-6.93-7.42S20.77,17.73,25.14,21.13Z"/><path class="d" d="M32.78,25.23c2,1.43,2.94,3.56,2.08,4.76s-3.17,1-5.18-.39S26.74,26,27.6,24.84,30.77,23.81,32.78,25.23Z"/><path class="e" d="M29.84,26.89a.32.32,0,0,1,.39.24.32.32,0,0,1-.24.4.34.34,0,0,1-.4-.25A.33.33,0,0,1,29.84,26.89Z"/><path class="f" d="M27.21,24.89a.33.33,0,0,1,.39.25.32.32,0,0,1-.24.39.32.32,0,0,1-.4-.24A.34.34,0,0,1,27.21,24.89Z"/><path class="g" d="M28.73,26.24a.33.33,0,0,1,.4.25.33.33,0,1,1-.4-.25Z"/><path class="h" d="M30.55,26a.32.32,0,0,1,.4.24.34.34,0,0,1-.25.4.33.33,0,0,1-.39-.25A.32.32,0,0,1,30.55,26Z"/><path class="i" d="M32.05,28.36a.33.33,0,0,1,.4.25.32.32,0,0,1-.25.39.33.33,0,0,1-.39-.24A.34.34,0,0,1,32.05,28.36Z"/><path class="j" d="M31.49,26.1a.32.32,0,0,1,.39.25.33.33,0,0,1-.24.39.34.34,0,0,1-.4-.25A.33.33,0,0,1,31.49,26.1Z"/><path class="k" d="M29.33,27.35a.31.31,0,0,1,.39.24.33.33,0,1,1-.64.15A.32.32,0,0,1,29.33,27.35Z"/><path class="l" d="M29.76,25.07a.31.31,0,0,1,.39.24.34.34,0,0,1-.24.4.33.33,0,0,1-.4-.25A.32.32,0,0,1,29.76,25.07Z"/><path class="m" d="M27.79,25.87a.33.33,0,0,1,.15.64.34.34,0,0,1-.4-.25A.32.32,0,0,1,27.79,25.87Z"/><path class="n" d="M27.58,23.63a.32.32,0,0,1,.4.24.32.32,0,0,1-.25.39.31.31,0,0,1-.39-.24A.32.32,0,0,1,27.58,23.63Z"/><path class="o" d="M30.28,27.3a.32.32,0,0,1,.39.25.31.31,0,0,1-.24.39.34.34,0,0,1-.4-.25A.33.33,0,0,1,30.28,27.3Z"/><path class="p" d="M32.13,27.56a.33.33,0,0,1,.15.64.34.34,0,0,1-.4-.24A.33.33,0,0,1,32.13,27.56Z"/></svg>