<svg xmlns="http://www.w3.org/2000/svg" xmlns:xlink="http://www.w3.org/1999/xlink" viewBox="0 0 83.28 70.92"><defs><style>.a{isolation:isolate;}.b{opacity:0.39;mix-blend-mode:screen;fill:url(#a);}.c{fill:#ff63a6;opacity:0.1;}.d{fill:url(#b);}.e{mix-blend-mode:color-dodge;fill:url(#c);}.f{fill:url(#d);}.g{fill:url(#e);}.h{fill:url(#f);}.i{fill:url(#g);}.j{fill:url(#h);}.k{fill:url(#i);}.l{fill:url(#j);}.m{fill:url(#k);}.n{fill:url(#l);}.o{fill:url(#m);}.p{fill:url(#n);}</style><radialGradient id="a" cx="-2812.1" cy="-4647.43" r="97.07" gradientTransform="matrix(-0.24, -0.97, 0.97, -0.24, 3903.63, -3789.62)" gradientUnits="userSpaceOnUse"><stop offset="0" stop-color="#ff27ff"/><stop offset="0.1" stop-color="#ff27ff" stop-opacity="0.98"/><stop offset="0.22" stop-color="#ff27ff" stop-opacity="0.91"/><stop offset="0.36" stop-color="#fe27fe" stop-opacity="0.81"/><stop offset="0.51" stop-color="#fe27fe" stop-opacity="0.66"/><stop offset="0.67" stop-color="#fd27fd" stop-opacity="0.47"/><stop offset="0.84" stop-color="#fd27fd" stop-opacity="0.24"/><stop offset="1" stop-color="#fc27fc" stop-opacity="0"/></radialGradient><radialGradient id="b" cx="-9690.11" cy="-2405.18" r="12.34" gradientTransform="matrix(0.18, -0.24, 1.52, 1.14, 5477.03, 458.07)" gradientUnits="userSpaceOnUse"><stop offset="0" stop-color="#eb2e8c" stop-opacity="0.7"/><stop offset="1" stop-color="#df2c85" stop-opacity="0"/></radialGradient><radialGradient id="c" cx="-4043.45" cy="-2055.27" r="8.71" gradientTransform="matrix(0.41, -0.59, 0.99, 0.68, 3745.75, -934.33)" gradientUnits="userSpaceOnUse"><stop offset="0" stop-color="#fff"/><stop offset="0.03" stop-color="#fff" stop-opacity="0.96"/><stop offset="0.24" stop-color="#fff" stop-opacity="0.67"/><stop offset="0.44" stop-color="#fff" stop-opacity="0.43"/><stop offset="0.62" stop-color="#fff" stop-opacity="0.25"/><stop offset="0.78" stop-color="#fff" stop-opacity="0.11"/><stop offset="0.91" stop-color="#fff" stop-opacity="0.03"/><stop offset="1" stop-color="#fff" stop-opacity="0"/></radialGradient><radialGradient id="d" cx="-2814.02" cy="-4648.61" r="0.77" gradientTransform="matrix(-0.24, -0.97, 0.97, -0.24, 3903.63, -3789.62)" xlink:href="#c"/><radialGradient id="e" cx="-2808.08" cy="-4653.55" r="0.77" gradientTransform="matrix(-0.24, -0.97, 0.97, -0.24, 3903.63, -3789.62)" xlink:href="#c"/><radialGradient id="f" cx="-2811.96" cy="-4650.78" r="0.77" gradientTransform="matrix(-0.24, -0.97, 0.97, -0.24, 3903.63, -3789.62)" gradientUnits="userSpaceOnUse"><stop offset="0.67" stop-color="#fff"/><stop offset="0.68" stop-color="#fff" stop-opacity="0.96"/><stop offset="0.75" stop-color="#fff" stop-opacity="0.67"/><stop offset="0.81" stop-color="#fff" stop-opacity="0.43"/><stop offset="0.87" stop-color="#fff" stop-opacity="0.25"/><stop offset="0.93" stop-color="#fff" stop-opacity="0.11"/><stop offset="0.97" stop-color="#fff" stop-opacity="0.03"/><stop offset="1" stop-color="#fff" stop-opacity="0"/></radialGradient><radialGradient id="g" cx="-2812.46" cy="-4646.53" r="0.77" xlink:href="#f"/><radialGradient id="h" cx="-2818.56" cy="-4644.35" r="0.77" gradientTransform="matrix(-0.24, -0.97, 0.97, -0.24, 3903.63, -3789.62)" gradientUnits="userSpaceOnUse"><stop offset="0.37" stop-color="#fff"/><stop offset="0.38" stop-color="#fff" stop-opacity="0.96"/><stop offset="0.52" stop-color="#fff" stop-opacity="0.67"/><stop offset="0.65" stop-color="#fff" stop-opacity="0.43"/><stop offset="0.76" stop-color="#fff" stop-opacity="0.25"/><stop offset="0.86" stop-color="#fff" stop-opacity="0.11"/><stop offset="0.95" stop-color="#fff" stop-opacity="0.03"/><stop offset="1" stop-color="#fff" stop-opacity="0"/></radialGradient><radialGradient id="i" cx="-2813.1" cy="-4644.43" r="0.77" xlink:href="#h"/><radialGradient id="j" cx="-2814.79" cy="-4650.01" r="0.77" gradientTransform="matrix(-0.24, -0.97, 0.97, -0.24, 3903.63, -3789.62)" gradientUnits="userSpaceOnUse"><stop offset="0.37" stop-color="#fff"/><stop offset="0.39" stop-color="#fff" stop-opacity="0.95"/><stop offset="0.45" stop-color="#fff" stop-opacity="0.82"/><stop offset="0.52" stop-color="#fff" stop-opacity="0.61"/><stop offset="0.6" stop-color="#fff" stop-opacity="0.32"/><stop offset="0.69" stop-color="#fff" stop-opacity="0"/></radialGradient><radialGradient id="k" cx="-2809.82" cy="-4647.82" r="0.77" gradientTransform="matrix(-0.24, -0.97, 0.97, -0.24, 3903.63, -3789.62)" gradientUnits="userSpaceOnUse"><stop offset="0.37" stop-color="#fff"/><stop offset="0.37" stop-color="#fff" stop-opacity="0.96"/><stop offset="0.43" stop-color="#fff" stop-opacity="0.67"/><stop offset="0.49" stop-color="#fff" stop-opacity="0.43"/><stop offset="0.54" stop-color="#fff" stop-opacity="0.25"/><stop offset="0.58" stop-color="#fff" stop-opacity="0.11"/><stop offset="0.62" stop-color="#fff" stop-opacity="0.03"/><stop offset="0.64" stop-color="#fff" stop-opacity="0"/></radialGradient><radialGradient id="l" cx="-2810.6" cy="-4652.74" r="0.77" gradientTransform="matrix(-0.24, -0.97, 0.97, -0.24, 3903.63, -3789.62)" gradientUnits="userSpaceOnUse"><stop offset="0.15" stop-color="#fff"/><stop offset="0.26" stop-color="#fff" stop-opacity="0.81"/><stop offset="0.41" stop-color="#fff" stop-opacity="0.57"/><stop offset="0.56" stop-color="#fff" stop-opacity="0.37"/><stop offset="0.69" stop-color="#fff" stop-opacity="0.21"/><stop offset="0.82" stop-color="#fff" stop-opacity="0.09"/><stop offset="0.92" stop-color="#fff" stop-opacity="0.02"/><stop offset="1" stop-color="#fff" stop-opacity="0"/></radialGradient><radialGradient id="m" cx="-2805.39" cy="-4652.01" r="0.77" gradientTransform="matrix(-0.24, -0.97, 0.97, -0.24, 3903.63, -3789.62)" gradientUnits="userSpaceOnUse"><stop offset="0.15" stop-color="#fff"/><stop offset="0.2" stop-color="#fff" stop-opacity="0.93"/><stop offset="0.43" stop-color="#fff" stop-opacity="0.6"/><stop offset="0.63" stop-color="#fff" stop-opacity="0.34"/><stop offset="0.8" stop-color="#fff" stop-opacity="0.16"/><stop offset="0.93" stop-color="#fff" stop-opacity="0.04"/><stop offset="1" stop-color="#fff" stop-opacity="0"/></radialGradient><radialGradient id="n" cx="-2816.77" cy="-4643.75" r="0.77" gradientTransform="matrix(-0.24, -0.97, 0.97, -0.24, 3903.63, -3789.62)" gradientUnits="userSpaceOnUse"><stop offset="0.15" stop-color="#fff"/><stop offset="0.29" stop-color="#fff" stop-opacity="0.82"/><stop offset="0.64" stop-color="#fff" stop-opacity="0.38"/><stop offset="0.89" stop-color="#fff" stop-opacity="0.11"/><stop offset="1" stop-color="#fff" stop-opacity="0"/></radialGradient></defs><g class="a"><path class="b" d="M4.62,5.41c2.57,1.55,4.16,5.3,6.22,9.17s10.13,6.54,13.21,10c2.69,3.06,10.61,9.53,13.73,12.14,5.36,4.49,13.4,11.48,21.14,17.15a.83.83,0,0,0-.19.73.78.78,0,0,0,.94.56.75.75,0,0,0,.5-.38l2.31,1.69a.4.4,0,0,0,.4.29l1.13.83a.54.54,0,0,0,.48.93.56.56,0,0,0,.37-.32l1.71,1.24a.53.53,0,0,0,0,.28.57.57,0,0,0,.69.41.51.51,0,0,0,.17-.07l.68.49A.72.72,0,0,0,68.52,62a.72.72,0,0,0,.54-.68l.48.34a7,7,0,0,0,3.81,2.29.88.88,0,0,0,0,.51,1,1,0,1,0,1.26-1.15,1.3,1.3,0,0,0,0-.76.4.4,0,0,0-.23-.76l0,0a12.06,12.06,0,0,0-1-1.59,2.42,2.42,0,0,0-1-.77,1.92,1.92,0,0,0,0-.22,1,1,0,0,0-1.26-.75,1,1,0,0,0-.49.29,3.2,3.2,0,0,1-.51-.29h0L69,57.69v0a.2.2,0,0,0-.24-.14h0l-2.37-1.67a.72.72,0,0,0,.21-.7.75.75,0,0,0-.9-.55.74.74,0,0,0-.49.42l-1.37-1a.59.59,0,0,0,.1-.5.6.6,0,0,0-1.08-.19c-9.73-6.88-24.21-17.19-27.19-19.73C28.89,27.84,25,24.17,22.82,22.31s-10.42-5-11.61-8.37S8.38,5.57,5.5,4.54,0,0,0,0,2.05,3.86,4.62,5.41Z"/><path class="c" d="M51.76,45.48c-.23,0-.47.05-.7.05.72.9,1.67,1.58,2.39,2.47a.07.07,0,0,1-.05.12,3.93,3.93,0,0,1-2.62-1.26A6.71,6.71,0,0,0,48,45.05c.13.22.27.43.41.64,3.38,2.77,7,5.64,10.51,8.23a.83.83,0,0,0-.19.73.78.78,0,0,0,.94.56.75.75,0,0,0,.5-.38l2.31,1.69a.4.4,0,0,0,.4.29l1.13.83a.54.54,0,0,0,.48.93.56.56,0,0,0,.37-.32l1.71,1.24a.53.53,0,0,0,0,.28.57.57,0,0,0,.69.41l.17-.07.68.49A.72.72,0,0,0,68.52,62a.72.72,0,0,0,.54-.68l.48.34a7,7,0,0,0,3.81,2.29.88.88,0,0,0,0,.51,1,1,0,1,0,1.26-1.15,1.3,1.3,0,0,0,0-.76.4.4,0,0,0-.23-.76l0,0a12.06,12.06,0,0,0-1-1.59,2.42,2.42,0,0,0-1-.77,1.92,1.92,0,0,0,0-.22,1,1,0,0,0-1.26-.75,1,1,0,0,0-.49.29,3.2,3.2,0,0,1-.51-.29h0L69,57.69v0a.2.2,0,0,0-.24-.14h0l-2.37-1.67a.72.72,0,0,0,.21-.7.75.75,0,0,0-.9-.55.74.74,0,0,0-.49.42l-1.37-1a.59.59,0,0,0,.1-.5.6.6,0,0,0-1.08-.19C59.49,51,55.57,48.2,51.76,45.48Z"/><path class="d" d="M59.52,48.58C69.86,56.38,77.23,64,76,65.69S65.35,62.35,55,54.55,37.3,39.09,38.55,37.44,49.18,40.78,59.52,48.58Z"/><path class="e" d="M77.54,57.92c4.74,3.27,7,8.22,5,11.06s-7.39,2.51-12.13-.75-7-8.22-5-11.07S72.79,54.66,77.54,57.92Z"/><path class="f" d="M70.72,61.89a.77.77,0,1,1,.37,1.49.77.77,0,0,1-.93-.56A.75.75,0,0,1,70.72,61.89Z"/><path class="g" d="M64.49,57.31a.77.77,0,1,1,.37,1.49.75.75,0,0,1-.93-.56A.77.77,0,0,1,64.49,57.31Z"/><path class="h" d="M68.11,60.41a.77.77,0,1,1-.56.93A.75.75,0,0,1,68.11,60.41Z"/><path class="i" d="M72.36,59.87a.77.77,0,1,1,.37,1.49.77.77,0,0,1-.93-.56A.75.75,0,0,1,72.36,59.87Z"/><path class="j" d="M75.94,65.27a.77.77,0,1,1,.37,1.49.77.77,0,0,1-.93-.56A.77.77,0,0,1,75.94,65.27Z"/><path class="k" d="M74.55,60a.77.77,0,1,1-.56.93A.75.75,0,0,1,74.55,60Z"/><path class="l" d="M69.54,63a.76.76,0,0,1,.93.56.77.77,0,0,1-.56.93.77.77,0,0,1-.93-.56A.75.75,0,0,1,69.54,63Z"/><path class="m" d="M70.46,57.63a.77.77,0,0,1,.93.56.75.75,0,0,1-.56.93.77.77,0,0,1-.37-1.49Z"/><path class="n" d="M65.88,59.57a.77.77,0,0,1,.93.56.75.75,0,0,1-.56.93.77.77,0,0,1-.37-1.49Z"/><path class="o" d="M65.33,54.33a.77.77,0,1,1,.37,1.49.76.76,0,0,1-.93-.56A.77.77,0,0,1,65.33,54.33Z"/><path class="p" d="M76.09,63.38a.77.77,0,0,1,.93.56.75.75,0,0,1-.56.93.76.76,0,0,1-.93-.56A.77.77,0,0,1,76.09,63.38Z"/></g></svg>