<svg xmlns="http://www.w3.org/2000/svg" xmlns:xlink="http://www.w3.org/1999/xlink" viewBox="0 0 59.51 64.46"><defs><style>.a{opacity:0.39;fill:url(#a);}.b{fill:#f69;opacity:0.75;}.c{fill:url(#b);}.d{fill:url(#c);}.e{fill:url(#d);}.f{fill:url(#e);}.g{fill:url(#f);}.h{fill:url(#g);}.i{fill:url(#h);}.j{fill:url(#i);}.k{fill:url(#j);}.l{fill:url(#k);}.m{fill:url(#l);}.n{fill:url(#m);}.o{fill:url(#n);}.p{fill:url(#o);}</style><radialGradient id="a" cx="-2816.41" cy="-4037.18" r="70.77" gradientTransform="matrix(-0.06, -1, 1, -0.06, 3918.68, -2988.49)" gradientUnits="userSpaceOnUse"><stop offset="0" stop-color="#ff27ff" stop-opacity="0.8"/><stop offset="0.11" stop-color="#ff27ff" stop-opacity="0.78"/><stop offset="0.25" stop-color="#ff27ff" stop-opacity="0.71"/><stop offset="0.41" stop-color="#ff27ff" stop-opacity="0.61"/><stop offset="0.59" stop-color="#fe27fe" stop-opacity="0.46"/><stop offset="0.77" stop-color="#fe27fe" stop-opacity="0.27"/><stop offset="0.97" stop-color="#fd27fd" stop-opacity="0.04"/><stop offset="1" stop-color="#fd27fd" stop-opacity="0"/></radialGradient><radialGradient id="b" cx="-8210.38" cy="-2194.04" r="15.19" gradientTransform="matrix(0.22, -0.2, 1.28, 1.41, 4679.44, 1447.33)" gradientUnits="userSpaceOnUse"><stop offset="0" stop-color="#eb2e8c" stop-opacity="0.7"/><stop offset="1" stop-color="#e12c86" stop-opacity="0"/></radialGradient><radialGradient id="c" cx="-3477.5" cy="-1733.77" r="10.73" gradientTransform="matrix(0.51, -0.51, 0.84, 0.85, 3282.65, -231.53)" gradientUnits="userSpaceOnUse"><stop offset="0" stop-color="#fff"/><stop offset="0.03" stop-color="#fefefe" stop-opacity="0.96"/><stop offset="0.24" stop-color="#f4f4f4" stop-opacity="0.67"/><stop offset="0.44" stop-color="#ececec" stop-opacity="0.43"/><stop offset="0.62" stop-color="#e6e6e6" stop-opacity="0.25"/><stop offset="0.78" stop-color="#e2e2e2" stop-opacity="0.11"/><stop offset="0.91" stop-color="#dfdfdf" stop-opacity="0.03"/><stop offset="1" stop-color="#dedede" stop-opacity="0"/></radialGradient><radialGradient id="d" cx="-2816.15" cy="-4039.79" r="0.95" gradientTransform="matrix(-0.06, -1, 1, -0.06, 3918.68, -2988.49)" gradientUnits="userSpaceOnUse"><stop offset="0" stop-color="#fff"/><stop offset="0.14" stop-color="#fbfbfb" stop-opacity="0.86"/><stop offset="1" stop-color="#e4e4e4" stop-opacity="0"/></radialGradient><radialGradient id="e" cx="-2808.83" cy="-4045.87" r="0.95" gradientTransform="matrix(-0.06, -1, 1, -0.06, 3918.68, -2988.49)" gradientUnits="userSpaceOnUse"><stop offset="0" stop-color="#fff"/><stop offset="1" stop-color="#e8e8e8" stop-opacity="0"/></radialGradient><radialGradient id="f" cx="-2813.61" cy="-4042.46" r="0.95" gradientTransform="matrix(-0.06, -1, 1, -0.06, 3918.68, -2988.49)" gradientUnits="userSpaceOnUse"><stop offset="0.67" stop-color="#fff"/><stop offset="0.68" stop-color="#fff" stop-opacity="0.96"/><stop offset="0.75" stop-color="#fff" stop-opacity="0.67"/><stop offset="0.81" stop-color="#fff" stop-opacity="0.43"/><stop offset="0.87" stop-color="#fff" stop-opacity="0.25"/><stop offset="0.93" stop-color="#fff" stop-opacity="0.11"/><stop offset="0.97" stop-color="#fff" stop-opacity="0.03"/><stop offset="1" stop-color="#fff" stop-opacity="0"/></radialGradient><radialGradient id="g" cx="-2814.23" cy="-4037.23" r="0.95" xlink:href="#f"/><radialGradient id="h" cx="-2821.74" cy="-4034.54" r="0.95" gradientTransform="matrix(-0.06, -1, 1, -0.06, 3918.68, -2988.49)" gradientUnits="userSpaceOnUse"><stop offset="0.37" stop-color="#fff"/><stop offset="0.38" stop-color="#fff" stop-opacity="0.96"/><stop offset="0.52" stop-color="#fff" stop-opacity="0.67"/><stop offset="0.65" stop-color="#fff" stop-opacity="0.43"/><stop offset="0.76" stop-color="#fff" stop-opacity="0.25"/><stop offset="0.86" stop-color="#fff" stop-opacity="0.11"/><stop offset="0.95" stop-color="#fff" stop-opacity="0.03"/><stop offset="1" stop-color="#fff" stop-opacity="0"/></radialGradient><radialGradient id="i" cx="-2815.02" cy="-4034.64" r="0.95" xlink:href="#h"/><radialGradient id="j" cx="-2817.1" cy="-4041.52" r="0.95" xlink:href="#h"/><radialGradient id="k" cx="-2810.98" cy="-4038.82" r="0.95" xlink:href="#h"/><radialGradient id="l" cx="-2811.94" cy="-4044.87" r="0.95" gradientTransform="matrix(-0.06, -1, 1, -0.06, 3918.68, -2988.49)" gradientUnits="userSpaceOnUse"><stop offset="0.15" stop-color="#fff"/><stop offset="0.17" stop-color="#fff" stop-opacity="0.96"/><stop offset="0.36" stop-color="#fff" stop-opacity="0.67"/><stop offset="0.53" stop-color="#fff" stop-opacity="0.43"/><stop offset="0.68" stop-color="#fff" stop-opacity="0.25"/><stop offset="0.82" stop-color="#fff" stop-opacity="0.11"/><stop offset="0.93" stop-color="#fff" stop-opacity="0.03"/><stop offset="1" stop-color="#fff" stop-opacity="0"/></radialGradient><radialGradient id="m" cx="-2805.52" cy="-4043.98" r="0.95" xlink:href="#l"/><radialGradient id="n" cx="-2817.59" cy="-4038.82" r="0.95" xlink:href="#l"/><radialGradient id="o" cx="-2819.53" cy="-4033.8" r="0.95" xlink:href="#l"/></defs><path class="a" d="M11.16,13.76c5.46,6.66,13.58,17,21.66,25.58a1,1,0,0,0,.61,1.73.9.9,0,0,0,.68-.34l2.41,2.57a.52.52,0,0,0,.42.44L38.12,45a.65.65,0,0,0-.33.61.66.66,0,0,0,.7.63.68.68,0,0,0,.51-.31l1.79,1.89a.8.8,0,0,0-.07.34.69.69,0,0,0,.74.65.59.59,0,0,0,.22-.05l.71.75a.89.89,0,0,0,.19,1.77.89.89,0,0,0,.82-.7l.49.52c.91,1.5,2.64,3.26,4.09,3.65a1.05,1.05,0,0,0-.13.61,1.19,1.19,0,0,0,1.26,1.13,1.19,1.19,0,0,0,.53-2.23,1.55,1.55,0,0,0,.19-.92.5.5,0,0,0,.42-.51.49.49,0,0,0-.52-.46h-.07a15.79,15.79,0,0,0-.85-2.15,3,3,0,0,0-1-1.15,1.22,1.22,0,0,0,0-.27,1.27,1.27,0,0,0-1.34-1.2,1.29,1.29,0,0,0-.67.24,4.88,4.88,0,0,1-.55-.47h0L44.14,46.2v-.05a.24.24,0,0,0-.25-.22h0l-2.48-2.56a.9.9,0,0,0,.41-.81.92.92,0,0,0-1-.86,1,1,0,0,0-.69.38L38.71,40.6A.72.72,0,0,0,39,40a.73.73,0,0,0-1.26-.48C27.48,29,12.33,13.21,9.31,9.46,2.45.92,0,0,0,0S8,9.89,11.16,13.76Z"/><path class="b" d="M26.08,27.49a8.39,8.39,0,0,1-.86-.1c.67,1.25,1.66,2.29,2.33,3.54a.08.08,0,0,1-.09.13c-1.24-.14-2.13-1.21-2.88-2.12s-1.67-2.33-2.94-2.83c.1.3.22.58.34.87,3.45,4.13,7.15,8.42,10.84,12.36a1,1,0,0,0,.61,1.73.9.9,0,0,0,.68-.34l2.41,2.57a.52.52,0,0,0,.42.44L38.12,45a.65.65,0,0,0-.33.61.66.66,0,0,0,.7.63.68.68,0,0,0,.51-.31l1.79,1.89a.8.8,0,0,0-.07.34.69.69,0,0,0,.74.65.59.59,0,0,0,.22-.05l.71.75a.89.89,0,0,0,.19,1.77.89.89,0,0,0,.82-.7l.49.52c.91,1.5,2.64,3.26,4.09,3.65a1.05,1.05,0,0,0-.13.61,1.19,1.19,0,0,0,1.26,1.13,1.19,1.19,0,0,0,.53-2.23,1.55,1.55,0,0,0,.19-.92.5.5,0,0,0,.42-.51.49.49,0,0,0-.52-.46h-.07a15.79,15.79,0,0,0-.85-2.15,3,3,0,0,0-1-1.15,1.22,1.22,0,0,0,0-.27,1.27,1.27,0,0,0-1.34-1.2,1.29,1.29,0,0,0-.67.24,4.88,4.88,0,0,1-.55-.47h0L44.14,46.2v-.05a.24.24,0,0,0-.25-.22h0l-2.48-2.56a.9.9,0,0,0,.41-.81.92.92,0,0,0-1-.86,1,1,0,0,0-.69.38L38.71,40.6A.72.72,0,0,0,39,40a.73.73,0,0,0-1.26-.48C34.17,35.91,30.07,31.66,26.08,27.49Z"/><path class="c" d="M34.76,33c10.73,11.8,17.89,22.75,16,24.46S38.67,51,27.94,39.21s-17.88-22.75-16-24.46S24,21.21,34.76,33Z"/><path class="d" d="M54.42,48.43C59.41,53.46,61,60,58,63s-9.51,1.34-14.5-3.69-6.59-11.54-3.57-14.54S49.43,43.4,54.42,48.43Z"/><path class="e" d="M45.26,51.68a.94.94,0,1,1-.89,1A.94.94,0,0,1,45.26,51.68Z"/><path class="f" d="M38.77,44.71a.95.95,0,1,1-.89,1A.95.95,0,0,1,38.77,44.71Z"/><path class="g" d="M42.44,49.29a.95.95,0,1,1-.89,1A.95.95,0,0,1,42.44,49.29Z"/><path class="h" d="M47.7,49.61a.94.94,0,1,1-.89,1A.94.94,0,0,1,47.7,49.61Z"/><path class="i" d="M50.81,57a.95.95,0,1,1-.89,1A.95.95,0,0,1,50.81,57Z"/><path class="j" d="M50.33,50.25a.95.95,0,1,1-.89,1A.95.95,0,0,1,50.33,50.25Z"/><path class="k" d="M43.58,52.72a.95.95,0,1,1-.89,1A.94.94,0,0,1,43.58,52.72Z"/><path class="l" d="M45.93,46.46a.95.95,0,1,1-.89,1A.95.95,0,0,1,45.93,46.46Z"/><path class="m" d="M39.94,47.76a.95.95,0,1,1-.89,1A.94.94,0,0,1,39.94,47.76Z"/><path class="n" d="M40.47,41.3a.95.95,0,1,1-.89,1A.95.95,0,0,1,40.47,41.3Z"/><path class="o" d="M46.3,53.06a.95.95,0,1,1-.89,1A.95.95,0,0,1,46.3,53.06Z"/><path class="p" d="M51.42,54.71a.95.95,0,1,1-.89,1A.95.95,0,0,1,51.42,54.71Z"/></svg>